# xmcd CD database file
#
# Track frame offsets:
#	150
#	25038
#	45811
#	68795
#	98999
#	125646
#	154744
#	180109
#
# Disc length: 2927 seconds
#
# Revision: 0
# Processed by: cddbd v1.5.1PL2 Copyright (c) Steve Scherf et al.
# Submitted via: CDex 1.51
#
DISCID=560b6d08
DTITLE=Vito Giordano Quartet - Flavours
DYEAR=1900
DGENRE=Jazz
TTITLE0=The time was
TTITLE1=Blue sea
TTITLE2=Minton's
TTITLE3=Letter from my daughter
TTITLE4=Body and soul
TTITLE5=Zagara
TTITLE6=South department
TTITLE7=Dry Land
EXTD=
EXTT0=
EXTT1=
EXTT2=
EXTT3=
EXTT4=
EXTT5=
EXTT6=
EXTT7=
PLAYORDER=
